<?xml version="1.0" encoding="UTF-8"?>
<svg width="752pt" height="752pt" version="1.1" viewBox="0 0 752 752" xmlns="http://www.w3.org/2000/svg">
 <path d="m605.39 161.41v-0.59375-0.73828c0.039063-0.29688 0.039063-0.59375 0-0.88672v-1.7031-1.0352c-0.19922-0.58594-0.44922-1.1562-0.73828-1.7031l-1.332-0.73828c-0.29687-0.63672-0.67187-1.2305-1.1094-1.7773l-0.44531-0.44531c-0.45703-0.59375-0.98047-1.1406-1.5547-1.625l-0.44531-0.37109-1.7734-1.1836-0.66406-0.37109-1.7773-0.8125h-6.2188 0.003907c-111.93 10.18-216.98 58.387-297.69 136.6-82.102 81.465-133.36 188.91-145.04 303.98-0.39453 3.5938 0.44141 7.2148 2.3789 10.27 1.9375 3.0508 4.8555 5.3555 8.2773 6.5273 1.3398 0.41797 2.7422 0.61719 4.1445 0.58984 3.7031 0.015625 7.2812-1.3594 10.02-3.8516 2.7422-2.4922 4.4453-5.9258 4.7812-9.6133 1.6797-17.41 4.3711-34.703 8.0625-51.801 16.273 2.0664 32.66 3.1055 49.062 3.1094 68.418 0.38672 135.65-17.879 194.46-52.832 3.9648-2.3047 6.6836-6.2734 7.3984-10.805 1.8867-15.285 1.8867-30.742 0-46.027-0.49219-4.3906-1.1602-8.6836-1.9961-12.875h-0.003906c-0.62891-3.1445 0.83984-6.3398 3.6406-7.9062 2.8008-1.5703 6.2891-1.1562 8.6445 1.0234 8.5781 7.5781 16.051 16.32 22.199 25.973 2.3711 3.7695 6.3125 6.2695 10.73 6.8086 4.3164 0.46094 8.6172-1 11.766-3.9961 113.21-108.41 115.8-253.51 115.21-281.19z"/>
</svg>
